<?xml version="1.0" encoding="utf-8"?>
<!-- Generator: Adobe Illustrator 24.1.2, SVG Export Plug-In . SVG Version: 6.00 Build 0)  -->
<svg version="1.1" id="Слой_1" xmlns="http://www.w3.org/2000/svg" xmlns:xlink="http://www.w3.org/1999/xlink" x="0px" y="0px"
	 viewBox="0 0 60 60" style="enable-background:new 0 0 60 60;" xml:space="preserve">
<style type="text/css">
	.st0{fill:#2CAD6E;}
</style>
<g>
	<path class="st0" d="M9.25,19.11h5.87c0.54,0,0.98-0.44,0.98-0.98V10.9c0-0.92-0.74-1.66-1.66-1.66H9.7
		c-1.02,0-1.84,0.83-1.84,1.84v6.63C7.85,18.48,8.48,19.11,9.25,19.11z"/>
	<path class="st0" d="M35.02,19.11h6.39c0.51,0,0.93-0.42,0.93-0.93v-8.01c0-0.51-0.42-0.93-0.93-0.93H35.2
		c-0.61,0-1.11,0.5-1.11,1.11v7.84C34.09,18.69,34.51,19.11,35.02,19.11z"/>
	<path class="st0" d="M19.32,32.16c-0.38,0-0.7,0.14-0.96,0.43c-0.25,0.29-0.38,0.72-0.38,1.3c0,0.58,0.13,1.03,0.39,1.34
		c0.26,0.31,0.59,0.46,0.99,0.46c0.41,0,0.75-0.15,1.02-0.45c0.27-0.3,0.41-0.73,0.41-1.28c0-0.56-0.14-1.01-0.43-1.33
		C20.08,32.32,19.73,32.16,19.32,32.16z"/>
	<path class="st0" d="M38.68,32.16c-0.38,0-0.7,0.14-0.96,0.43c-0.25,0.29-0.38,0.72-0.38,1.3c0,0.58,0.13,1.03,0.39,1.34
		s0.59,0.46,0.99,0.46c0.41,0,0.75-0.15,1.02-0.45c0.27-0.3,0.41-0.73,0.41-1.28c0-0.56-0.14-1.01-0.43-1.33
		C39.43,32.32,39.08,32.16,38.68,32.16z"/>
	<path class="st0" d="M29,32.16c-0.38,0-0.7,0.14-0.96,0.43c-0.25,0.29-0.38,0.72-0.38,1.3c0,0.58,0.13,1.03,0.39,1.34
		c0.26,0.31,0.59,0.46,0.99,0.46c0.41,0,0.75-0.15,1.02-0.45c0.27-0.3,0.41-0.73,0.41-1.28c0-0.56-0.14-1.01-0.43-1.33
		C29.75,32.32,29.41,32.16,29,32.16z"/>
	<path class="st0" d="M48.41,16.28h-4.05v5.94H31.11v-5.94H18.6v5.94H5.35v-5.94h-3.2c-0.55,0-1,0.45-1,1v31.87c0,0.55,0.45,1,1,1
		h46.25c0.55,0,1-0.45,1-1V17.28C49.41,16.73,48.96,16.28,48.41,16.28z M13.36,40.96h-2.93v-6.95c-0.47,0.36-0.93,0.65-1.38,0.88
		c-0.44,0.22-1,0.44-1.67,0.64v-2.38c0.99-0.32,1.75-0.7,2.3-1.15c0.55-0.45,0.97-1,1.28-1.65h2.4V40.96z M22.64,39.83
		c-0.79,0.88-1.89,1.31-3.29,1.31c-0.83,0-1.48-0.1-1.96-0.29c-0.48-0.19-0.88-0.47-1.2-0.84c-0.32-0.37-0.56-0.83-0.73-1.39
		l2.88-0.36c0.08,0.4,0.2,0.69,0.38,0.85c0.18,0.17,0.4,0.25,0.66,0.25c0.46,0,0.83-0.23,1.09-0.7c0.19-0.35,0.33-1.08,0.43-2.2
		c-0.35,0.36-0.7,0.62-1.07,0.78c-0.37,0.17-0.79,0.25-1.27,0.25c-0.93,0-1.72-0.33-2.37-1c-0.64-0.66-0.96-1.5-0.96-2.52
		c0-0.69,0.16-1.32,0.49-1.89c0.33-0.57,0.78-1,1.35-1.29c0.57-0.29,1.3-0.44,2.16-0.44c1.04,0,1.88,0.18,2.51,0.54
		c0.63,0.36,1.13,0.93,1.51,1.71c0.38,0.78,0.57,1.81,0.57,3.09C23.83,37.57,23.43,38.95,22.64,39.83z M32.32,39.83
		c-0.79,0.88-1.89,1.31-3.29,1.31c-0.83,0-1.48-0.1-1.96-0.29c-0.48-0.19-0.88-0.47-1.2-0.84c-0.32-0.37-0.56-0.83-0.73-1.39
		l2.88-0.36c0.08,0.4,0.2,0.69,0.38,0.85c0.18,0.17,0.4,0.25,0.66,0.25c0.46,0,0.83-0.23,1.09-0.7c0.19-0.35,0.33-1.08,0.43-2.2
		c-0.35,0.36-0.7,0.62-1.07,0.78c-0.37,0.17-0.79,0.25-1.27,0.25c-0.93,0-1.72-0.33-2.37-1c-0.64-0.66-0.96-1.5-0.96-2.52
		c0-0.69,0.16-1.32,0.49-1.89c0.33-0.57,0.78-1,1.35-1.29c0.57-0.29,1.3-0.44,2.16-0.44c1.04,0,1.88,0.18,2.51,0.54
		c0.63,0.36,1.14,0.93,1.51,1.71c0.38,0.78,0.57,1.81,0.57,3.09C33.5,37.57,33.11,38.95,32.32,39.83z M41.99,39.83
		c-0.79,0.88-1.89,1.31-3.29,1.31c-0.83,0-1.48-0.1-1.96-0.29c-0.48-0.19-0.88-0.47-1.2-0.84c-0.32-0.37-0.56-0.83-0.73-1.39
		l2.88-0.36c0.08,0.4,0.2,0.69,0.38,0.85c0.18,0.17,0.4,0.25,0.66,0.25c0.46,0,0.83-0.23,1.09-0.7c0.19-0.35,0.33-1.08,0.43-2.2
		c-0.35,0.36-0.7,0.62-1.07,0.78c-0.37,0.17-0.79,0.25-1.27,0.25c-0.93,0-1.72-0.33-2.37-1c-0.64-0.66-0.96-1.5-0.96-2.52
		c0-0.69,0.16-1.32,0.49-1.89c0.33-0.57,0.78-1,1.35-1.29c0.57-0.29,1.3-0.44,2.16-0.44c1.04,0,1.88,0.18,2.51,0.54
		c0.63,0.36,1.13,0.93,1.51,1.71c0.38,0.78,0.57,1.81,0.57,3.09C43.18,37.57,42.79,38.95,41.99,39.83z"/>
</g>
</svg>
