<?xml version="1.0" encoding="utf-8"?>
<!-- Generator: Adobe Illustrator 24.1.2, SVG Export Plug-In . SVG Version: 6.00 Build 0)  -->
<svg version="1.1" id="Слой_1" xmlns="http://www.w3.org/2000/svg" xmlns:xlink="http://www.w3.org/1999/xlink" x="0px" y="0px"
	 viewBox="0 0 60 60" style="enable-background:new 0 0 60 60;" xml:space="preserve">
<style type="text/css">
	.st0{fill:#2CAD6E;}
</style>
<g>
	<path class="st0" d="M29.75,42.94c1.58,0.2,3.15,0.46,4.73,0.7c1.01,0.16,1.39-0.05,1.76-1c0.57-1.46,1.12-2.94,1.73-4.38
		c0.13-0.3,0.44-0.62,0.74-0.75c1.45-0.61,2.92-1.15,4.39-1.72c0.93-0.36,1.15-0.73,1.01-1.69c-0.23-1.6-0.5-3.19-0.7-4.8
		c-0.04-0.29,0.07-0.67,0.24-0.9c0.97-1.27,1.99-2.49,2.98-3.74c0.61-0.77,0.61-1.22,0.01-1.98c-0.99-1.25-2.01-2.48-2.98-3.74
		c-0.18-0.23-0.29-0.61-0.25-0.89c0.2-1.6,0.47-3.2,0.7-4.8c0.14-0.97-0.08-1.34-1-1.7c-1.48-0.58-2.98-1.14-4.45-1.74
		C38.38,9.69,38.11,9.41,38,9.14c-0.62-1.49-1.18-3.01-1.77-4.51c-0.33-0.85-0.72-1.08-1.61-0.95c-1.62,0.23-3.24,0.5-4.87,0.71
		c-0.29,0.04-0.67-0.06-0.9-0.24c-1.27-0.97-2.5-1.99-3.74-2.98c-0.78-0.62-1.19-0.62-1.98,0c-1.25,0.99-2.48,2.01-3.75,2.98
		c-0.23,0.18-0.61,0.28-0.9,0.24c-1.6-0.21-3.2-0.47-4.8-0.7C12.71,3.55,12.36,3.76,12,4.7c-0.57,1.46-1.11,2.94-1.72,4.39
		c-0.13,0.31-0.44,0.62-0.74,0.75c-1.49,0.62-3.01,1.18-4.51,1.77c-0.79,0.31-1.02,0.73-0.9,1.58c0.24,1.62,0.51,3.24,0.71,4.86
		c0.04,0.29-0.07,0.67-0.25,0.9c-0.97,1.27-1.99,2.5-2.98,3.74C1,23.44,1,23.9,1.61,24.66c1,1.25,2.01,2.48,2.98,3.74
		c0.18,0.23,0.28,0.61,0.24,0.9c-0.22,1.71-0.5,3.42-0.77,5.18c-0.01,0.67,0.38,1.06,1.01,1.3c1.51,0.57,3.02,1.14,4.51,1.76
		c0.27,0.11,0.55,0.39,0.66,0.66c0.62,1.49,1.18,3.01,1.77,4.51c0.34,0.86,0.77,1.09,1.67,0.95c1.6-0.25,3.19-0.51,4.8-0.72
		c0.29-0.04,0.67,0.06,0.9,0.24c1.27,0.97,2.5,1.99,3.74,2.98c0.76,0.61,1.23,0.61,1.98,0.01c1.25-1,2.47-2.02,3.74-2.99
		C29.08,43.01,29.46,42.91,29.75,42.94z M24.11,38.3C16.03,38.28,9.5,31.74,9.5,23.66c0-8.07,6.56-14.62,14.63-14.6
		c8.1,0.02,14.62,6.55,14.61,14.63C38.73,31.76,32.16,38.32,24.11,38.3z"/>
	<path class="st0" d="M17.58,45.54c-1.13,0.2-2.26,0.37-3.39,0.54c-2.24,0.35-3.7-0.51-4.53-2.65c-0.37-0.96-0.75-1.91-1.17-3.01
		c-2.54,3.56-5,6.99-7.44,10.43c-0.3,0.42-0.33,0.88-0.04,1.33c0.3,0.47,0.75,0.6,1.28,0.56C4.13,52.6,6,52.49,7.85,52.32
		c0.44-0.04,0.58,0.09,0.68,0.5c0.43,1.72,0.9,3.43,1.34,5.15c0.15,0.59,0.35,1.14,1.03,1.28c0.71,0.15,1.11-0.29,1.49-0.81
		c2.55-3.59,5.11-7.17,7.67-10.76c0.11-0.16,0.21-0.33,0.34-0.53c-0.53-0.43-1.06-0.82-1.53-1.26
		C18.48,45.54,18.08,45.45,17.58,45.54z"/>
	<path class="st0" d="M47,50.54c-1.95-2.72-3.9-5.45-5.84-8.17c-0.44-0.62-0.88-1.23-1.4-1.95c-0.49,1.26-0.9,2.37-1.36,3.47
		c-0.69,1.65-2.34,2.54-4.1,2.24c-1.24-0.21-2.48-0.41-3.73-0.59c-0.25-0.04-0.59-0.07-0.77,0.06c-0.68,0.48-1.3,1.02-1.96,1.54
		c0.07,0.13,0.1,0.21,0.15,0.28c2.66,3.73,5.32,7.47,7.98,11.2c0.33,0.46,0.74,0.73,1.32,0.63c0.58-0.11,0.85-0.51,0.99-1.06
		c0.47-1.8,0.96-3.6,1.42-5.4c0.08-0.32,0.17-0.51,0.57-0.47c1.81,0.15,3.63,0.25,5.45,0.4c0.62,0.05,1.18,0.02,1.53-0.57
		C47.63,51.54,47.36,51.04,47,50.54z"/>
	<path class="st0" d="M33.18,19.63c-1.54,0-3.07,0-4.61,0c-3.12,3.12-6.23,6.24-9.35,9.36c-0.03-0.02-0.06-0.03-0.1-0.05
		c0-0.14,0-0.28,0-0.42c0-2.79,0-5.58,0-8.36c0-0.17-0.01-0.35-0.02-0.52c-1.54,0-3.07,0-4.61,0c-0.02,0.14-0.07,0.28-0.07,0.43
		c0,2.86,0,5.72,0,8.57c0,0.14,0.01,0.28,0.02,0.42c0.09,0.01,0.13,0.03,0.17,0.03c2.99,0,5.98,0.01,8.98-0.01
		c0.16,0,0.36-0.11,0.48-0.23c2.97-2.96,5.93-5.92,8.89-8.88C33.05,19.86,33.11,19.74,33.18,19.63z"/>
	<path class="st0" d="M33.21,29.05c0-1.54,0-3.06,0-4.57c-1.53,1.52-3.04,3.03-4.59,4.57C30.18,29.05,31.69,29.05,33.21,29.05z"/>
</g>
</svg>
