<?xml version="1.0" encoding="utf-8"?>
<!-- Generator: Adobe Illustrator 24.1.2, SVG Export Plug-In . SVG Version: 6.00 Build 0)  -->
<svg version="1.1" id="Слой_1" xmlns="http://www.w3.org/2000/svg" xmlns:xlink="http://www.w3.org/1999/xlink" x="0px" y="0px"
	 viewBox="0 0 60 60" style="enable-background:new 0 0 60 60;" xml:space="preserve">
<style type="text/css">
	.st0{fill:#2CAD6E;}
</style>
<g>
	<path class="st0" d="M37.02,42.11c0.09-0.47-0.03-0.74-0.34-1.04c-0.58-0.57-1.15-1.15-1.73-1.72l-0.58-0.56
		c-0.83-0.82-1.65-1.65-2.48-2.48c-0.41-0.41-0.82-0.82-1.24-1.23l0,0c-0.86-0.86-1.73-1.73-2.59-2.59c-0.13-0.13-0.26-0.27-0.4-0.4
		c-5.58,0-11.15-0.01-16.73,0c-0.63,0-1.14-0.23-1.62-0.64c0.93-1.86,1.85-3.71,2.8-5.54c0.31-0.61,0.86-0.91,1.54-0.91
		c0.3,0,0.6,0,0.91,0c-1.25-0.76-2.31-1.82-3.08-3.1c-1.15,0.49-2.04,1.39-2.69,2.69c-0.59,1.19-1.2,2.38-1.78,3.57
		c-0.14,0.29-0.3,0.4-0.63,0.4c-1.18-0.02-2.37-0.01-3.55-0.01c-1.22,0-2.03,0.72-2.03,1.79c0.01,1.06,0.82,1.76,2.05,1.76
		c0.46,0,0.92,0,1.49,0c-0.87,1.16-1.65,2.21-2.44,3.26C1.33,36.12,0.9,37,0.86,37.97c-0.07,1.72-0.11,3.44,0.01,5.16
		c0.05,0.66,0.39,1.49,0.88,1.9c0.83,0.68,0.92,1.45,0.84,2.37c-0.02,0.18,0,0.37,0,0.55c0.02,2.12,1.53,3.64,3.63,3.66
		c1.09,0.01,2.18,0.01,3.27,0c2.25-0.01,3.73-1.5,3.75-3.77c0-0.51,0-1.02,0-1.53c5.95,0,11.83,0,17.76,0c0,0.61-0.01,1.2,0,1.79
		c0.04,1.95,1.56,3.48,3.5,3.51c1.2,0.02,2.4,0.02,3.61,0c0.79-0.01,1.51-0.27,2.09-0.69C37.68,48.87,36.35,45.56,37.02,42.11z
		 M7.9,42.73c-1.45-0.01-2.64-1.2-2.65-2.65C5.25,38.6,6.45,37.4,7.93,37.4c1.45,0,2.64,1.19,2.65,2.65
		C10.59,41.53,9.38,42.73,7.9,42.73z"/>
	<path class="st0" d="M50.48,32.68c-1.06-0.17-2.18-0.06-3.26,0.02c-0.42,0.03-0.7,0-1.01-0.31c-0.59-0.59-1.18-1.18-1.77-1.77l0,0
		c-0.33-0.33-0.33-0.33-0.59-0.6c-0.92-0.94-1.86-1.87-2.8-2.81c-3.18-3.18-6.36-6.37-9.55-9.54c-0.3-0.3-0.34-0.58-0.31-1.01
		c0.08-1.08,0.18-2.2,0.02-3.26c-0.88-5.59-6.71-9.09-12.54-6.88c0.12,0.14,0.23,0.26,0.35,0.38c1.53,1.54,3.06,3.08,4.61,4.6
		c0.34,0.34,0.43,0.65,0.3,1.1c-0.25,0.87-0.45,1.75-0.64,2.63c-0.09,0.43-0.29,0.65-0.72,0.74c-0.93,0.19-1.86,0.41-2.78,0.66
		c-0.37,0.1-0.62,0.03-0.88-0.24c-1.01-1.03-2.04-2.04-3.05-3.06c-0.66-0.66-1.3-1.34-2.02-2.08c-0.6,1.75-0.84,3.4-0.57,5.12
		c0.81,5.12,5.63,8.5,10.73,7.5c0.47-0.09,0.74,0.03,1.04,0.34c1.99,2.01,3.99,4.02,5.99,6.02c0.86,0.86,1.73,1.73,2.59,2.59l0,0
		c0.41,0.41,0.82,0.82,1.24,1.23c0.83,0.83,1.65,1.65,2.48,2.48l0.58,0.56c0.58,0.57,1.15,1.15,1.73,1.72
		c0.31,0.31,0.43,0.58,0.34,1.04c-1,5.09,2.39,9.91,7.5,10.73c1.72,0.27,3.37,0.03,5.12-0.57c-0.74-0.71-1.41-1.36-2.08-2.02
		c-1.02-1.02-2.03-2.05-3.06-3.05c-0.27-0.26-0.34-0.51-0.24-0.88c0.25-0.92,0.47-1.85,0.66-2.78c0.09-0.44,0.32-0.63,0.74-0.72
		c0.88-0.19,1.76-0.39,2.63-0.64c0.46-0.13,0.77-0.05,1.1,0.3c1.52,1.55,3.07,3.08,4.6,4.61c0.12,0.12,0.24,0.23,0.38,0.35
		C59.58,39.4,56.07,33.57,50.48,32.68z"/>
</g>
</svg>
