<?xml version="1.0" encoding="utf-8"?>
<!-- Generator: Adobe Illustrator 24.1.2, SVG Export Plug-In . SVG Version: 6.00 Build 0)  -->
<svg version="1.1" id="Слой_1" xmlns="http://www.w3.org/2000/svg" xmlns:xlink="http://www.w3.org/1999/xlink" x="0px" y="0px"
	 viewBox="0 0 60 60" style="enable-background:new 0 0 60 60;" xml:space="preserve">
<style type="text/css">
	.st0{fill:#2CAD6E;}
</style>
<g>
	<path class="st0" d="M19.44,45.14c1,0.13,2,0.29,3,0.45c0.64,0.1,0.88-0.03,1.12-0.63c0.36-0.93,0.71-1.86,1.09-2.78
		c0.08-0.19,0.28-0.39,0.47-0.47c0.92-0.39,1.85-0.73,2.78-1.09c0.59-0.23,0.73-0.46,0.64-1.07c-0.15-1.01-0.31-2.02-0.44-3.04
		c-0.02-0.18,0.04-0.42,0.15-0.57c0.61-0.8,1.26-1.58,1.89-2.37c0.39-0.49,0.39-0.77,0-1.26c-0.63-0.79-1.27-1.57-1.89-2.37
		c-0.11-0.15-0.18-0.38-0.16-0.57c0.13-1.02,0.3-2.03,0.44-3.04c0.09-0.61-0.05-0.85-0.63-1.08c-0.94-0.37-1.89-0.72-2.82-1.1
		c-0.17-0.07-0.34-0.25-0.41-0.42c-0.39-0.95-0.75-1.91-1.12-2.86c-0.21-0.54-0.46-0.68-1.02-0.6c-1.03,0.15-2.05,0.32-3.08,0.45
		c-0.18,0.02-0.42-0.04-0.57-0.15c-0.8-0.61-1.58-1.26-2.37-1.89c-0.49-0.39-0.75-0.39-1.25,0c-0.79,0.63-1.57,1.27-2.37,1.88
		c-0.15,0.11-0.39,0.18-0.57,0.15c-1.02-0.13-2.03-0.3-3.04-0.44c-0.62-0.09-0.84,0.05-1.07,0.64c-0.36,0.93-0.7,1.86-1.09,2.78
		c-0.08,0.19-0.28,0.39-0.47,0.48c-0.94,0.39-1.91,0.74-2.86,1.12c-0.5,0.2-0.65,0.46-0.57,1c0.15,1.03,0.32,2.05,0.45,3.08
		c0.02,0.18-0.04,0.42-0.16,0.57c-0.62,0.8-1.26,1.58-1.89,2.37c-0.38,0.48-0.38,0.77,0,1.26c0.63,0.79,1.27,1.57,1.89,2.37
		c0.11,0.15,0.18,0.39,0.15,0.57c-0.14,1.09-0.32,2.17-0.49,3.28c-0.01,0.42,0.24,0.67,0.64,0.82c0.96,0.36,1.91,0.72,2.86,1.11
		c0.17,0.07,0.35,0.25,0.42,0.42c0.39,0.95,0.75,1.91,1.12,2.86c0.21,0.54,0.49,0.69,1.06,0.6c1.01-0.16,2.02-0.32,3.04-0.45
		c0.18-0.02,0.42,0.04,0.57,0.15c0.8,0.61,1.58,1.26,2.37,1.89c0.48,0.38,0.78,0.39,1.26,0.01c0.79-0.63,1.57-1.28,2.37-1.89
		C19.02,45.18,19.26,45.11,19.44,45.14z M15.87,42.2c-5.12-0.01-9.25-4.16-9.25-9.27c0-5.11,4.16-9.26,9.27-9.25
		c5.13,0.01,9.26,4.15,9.25,9.27C25.13,38.05,20.97,42.21,15.87,42.2z"/>
	<path class="st0" d="M11.73,46.78c-0.71,0.13-1.43,0.23-2.15,0.34c-1.42,0.22-2.35-0.32-2.87-1.68c-0.23-0.61-0.47-1.21-0.74-1.91
		c-1.61,2.25-3.16,4.43-4.72,6.61c-0.19,0.27-0.21,0.56-0.03,0.84c0.19,0.3,0.47,0.38,0.81,0.36c1.18-0.09,2.36-0.16,3.53-0.26
		c0.28-0.02,0.37,0.06,0.43,0.32c0.27,1.09,0.57,2.17,0.85,3.26c0.1,0.38,0.22,0.72,0.65,0.81c0.45,0.09,0.71-0.18,0.94-0.52
		c1.62-2.27,3.24-4.54,4.86-6.81c0.07-0.1,0.13-0.21,0.21-0.33c-0.34-0.27-0.67-0.52-0.97-0.8C12.3,46.78,12.05,46.72,11.73,46.78z"
		/>
	<path class="st0" d="M26.66,44.77c-0.28-0.39-0.56-0.78-0.89-1.24c-0.31,0.8-0.57,1.5-0.86,2.2c-0.44,1.05-1.48,1.61-2.6,1.42
		c-0.79-0.13-1.57-0.26-2.36-0.37c-0.16-0.02-0.37-0.04-0.49,0.04c-0.43,0.3-0.83,0.64-1.24,0.98c0.04,0.08,0.07,0.13,0.1,0.18
		c1.69,2.36,3.37,4.73,5.06,7.09c0.21,0.29,0.47,0.47,0.83,0.4c0.36-0.07,0.54-0.32,0.63-0.67c0.3-1.14,0.61-2.28,0.9-3.42
		c0.05-0.2,0.1-0.32,0.36-0.3c1.15,0.1,2.3,0.16,3.45,0.26c0.4,0.03,0.75,0.01,0.97-0.36c0.23-0.38,0.06-0.7-0.17-1.02
		C29.13,48.22,27.9,46.5,26.66,44.77z"/>
	<path class="st0" d="M57.55,4.1H4.31c-0.55,0-1,0.45-1,1v15.57c0.99-0.38,1.99-0.76,2.97-1.17c0.23-0.1,0.47-0.34,0.57-0.57
		c0.46-1.11,0.88-2.23,1.31-3.35c0.28-0.71,0.55-0.88,1.29-0.77c1.22,0.17,2.44,0.38,3.67,0.53c0.22,0.03,0.51-0.05,0.68-0.18
		c0.97-0.74,1.91-1.52,2.86-2.27c0.6-0.48,0.91-0.48,1.51,0c0.95,0.76,1.89,1.54,2.86,2.28c0.18,0.13,0.47,0.21,0.69,0.18
		c1.24-0.16,2.48-0.36,3.72-0.54c0.68-0.1,0.97,0.08,1.23,0.73c0.45,1.15,0.88,2.31,1.35,3.45c0.08,0.2,0.3,0.42,0.5,0.5
		c1.12,0.47,2.27,0.89,3.4,1.33c0.7,0.27,0.87,0.56,0.76,1.3c-0.18,1.22-0.38,2.44-0.54,3.67c-0.03,0.22,0.06,0.51,0.19,0.68
		c0.74,0.97,1.52,1.91,2.28,2.86c0.47,0.59,0.46,0.93,0,1.51c-0.76,0.95-1.54,1.89-2.28,2.86c-0.13,0.18-0.21,0.46-0.19,0.68
		c0.15,1.2,0.35,2.4,0.53,3.6h24.88c0.55,0,1-0.45,1-1V5.1C58.55,4.55,58.1,4.1,57.55,4.1z M54.46,28.31c0,0.55-0.45,1-1,1H40.21
		c-0.55,0-1-0.45-1-1v-1.87c0-0.55,0.45-1,1-1h13.25c0.55,0,1,0.45,1,1V28.31z M54.46,19.57c0,0.55-0.45,1-1,1H40.21
		c-0.55,0-1-0.45-1-1V17.7c0-0.55,0.45-1,1-1h13.25c0.55,0,1,0.45,1,1V19.57z M54.46,11.56c0,0.55-0.45,1-1,1H33.21
		c-0.55,0-1-0.45-1-1V9.68c0-0.55,0.45-1,1-1h20.25c0.55,0,1,0.45,1,1V11.56z"/>
	<path class="st0" d="M22.37,29.65c-1.07,0-2.13,0-3.2,0c-2.16,2.16-4.32,4.33-6.48,6.49c-0.02-0.01-0.04-0.02-0.07-0.03
		c0-0.1,0-0.2,0-0.29c0-1.93,0-3.87,0-5.8c0-0.12-0.01-0.24-0.02-0.36c-1.07,0-2.13,0-3.2,0c-0.02,0.1-0.05,0.2-0.05,0.3
		c0,1.98,0,3.97,0,5.95c0,0.1,0.01,0.2,0.01,0.29c0.06,0.01,0.09,0.02,0.12,0.02c2.08,0,4.15,0,6.23,0c0.11,0,0.25-0.08,0.33-0.16
		c2.06-2.05,4.11-4.11,6.17-6.16C22.28,29.81,22.32,29.72,22.37,29.65z"/>
	<path class="st0" d="M22.39,36.18c0-1.07,0-2.13,0-3.17c-1.06,1.05-2.11,2.1-3.18,3.17C20.29,36.18,21.34,36.18,22.39,36.18z"/>
</g>
</svg>
