<?xml version="1.0" encoding="utf-8"?>
<!-- Generator: Adobe Illustrator 24.1.2, SVG Export Plug-In . SVG Version: 6.00 Build 0)  -->
<svg version="1.1" id="Слой_1" xmlns="http://www.w3.org/2000/svg" xmlns:xlink="http://www.w3.org/1999/xlink" x="0px" y="0px"
	 viewBox="0 0 60 60" style="enable-background:new 0 0 60 60;" xml:space="preserve">
<style type="text/css">
	.st0{fill:#2CAD6E;}
</style>
<g>
	<path class="st0" d="M35.1,42.6c0.1-0.2,0.36-0.41,0.58-0.46c0.08-0.02,0.16-0.03,0.25-0.05c0,0,0,0,0,0
		c-0.3-1.32-0.28-2.66-0.03-3.98c0.08-0.4-0.02-0.65-0.29-0.91c-2.22-2.21-4.43-4.43-6.64-6.64c-2.11-2.11-4.22-4.22-6.32-6.34
		c-0.32-0.33-0.61-0.46-1.1-0.36c-1.73,0.34-3.43,0.19-4.97-0.34c-0.09,0.12-0.22,0.19-0.4,0.26c-0.95,0.37-1.87,0.79-2.82,1.15
		c-0.2,0.08-0.51,0.07-0.68-0.04c-0.71-0.45-1.37-0.97-2.07-1.43c-0.98-0.65-2.06-0.55-2.9,0.27c-0.55,0.53-1.08,1.07-1.61,1.61
		c-0.88,0.91-0.98,1.99-0.26,3.05c0.44,0.65,0.88,1.29,1.35,1.91c0.21,0.28,0.21,0.49,0.06,0.81c-0.42,0.91-0.81,1.83-1.14,2.76
		c-0.14,0.39-0.36,0.53-0.72,0.58c-0.75,0.12-1.5,0.25-2.25,0.38c-1.2,0.22-1.92,1.08-1.94,2.3c-0.01,0.78-0.01,1.56,0,2.34
		c0.02,1.12,0.69,1.95,1.78,2.18c0.82,0.18,1.65,0.33,2.48,0.44c0.39,0.05,0.52,0.25,0.65,0.58c0.35,0.93,0.73,1.85,1.15,2.76
		c0.13,0.29,0.16,0.49-0.04,0.75c-0.5,0.67-0.99,1.36-1.45,2.06c-0.63,0.95-0.53,2.02,0.26,2.86c0.54,0.57,1.09,1.11,1.65,1.66
		c0.89,0.87,1.96,0.97,3,0.27c0.66-0.45,1.32-0.9,1.96-1.38c0.28-0.22,0.5-0.19,0.81-0.05c0.89,0.4,1.8,0.77,2.71,1.12
		c0.33,0.13,0.52,0.26,0.57,0.65c0.11,0.85,0.27,1.7,0.46,2.54c0.22,1.02,1.06,1.69,2.11,1.71c0.8,0.02,1.6,0.02,2.4,0
		c1.26-0.02,2.09-0.75,2.31-2c0.13-0.75,0.27-1.49,0.38-2.25c0.05-0.37,0.23-0.53,0.57-0.66c0.93-0.35,1.86-0.73,2.76-1.14
		c0.32-0.15,0.53-0.14,0.81,0.07c0.64,0.48,1.3,0.94,1.96,1.39c1,0.67,2.09,0.58,2.96-0.25c0.55-0.53,1.09-1.06,1.61-1.61
		c0.89-0.93,0.98-1.97,0.24-3.05c-0.45-0.66-0.94-1.3-1.36-1.97c-0.11-0.17-0.12-0.49-0.04-0.68C34.27,44.49,34.67,43.54,35.1,42.6z
		 M20.57,44.92c-3.7-0.01-6.65-2.98-6.65-6.69c0-3.65,3-6.65,6.64-6.65c3.67,0,6.7,3.01,6.7,6.68
		C27.26,41.93,24.26,44.92,20.57,44.92z"/>
	<path class="st0" d="M57.49,35.72c-0.74-5.7-5.74-9.23-11.4-8.23c-0.42,0.07-0.68-0.01-0.96-0.3c-0.97-1-1.96-1.97-2.95-2.96
		c-3.35-3.35-6.7-6.71-10.07-10.05c-0.32-0.32-0.36-0.61-0.32-1.06c0.08-1.14,0.19-2.32,0.02-3.43c-0.93-5.89-7.07-9.58-13.21-7.25
		c0.13,0.14,0.25,0.28,0.37,0.4c1.62,1.62,3.22,3.25,4.86,4.85c0.36,0.35,0.45,0.68,0.31,1.16c-0.26,0.91-0.48,1.84-0.67,2.77
		c-0.09,0.45-0.3,0.69-0.76,0.78c-0.98,0.2-1.96,0.44-2.93,0.7c-0.39,0.11-0.65,0.03-0.93-0.25c-1.06-1.09-2.15-2.15-3.22-3.23
		c-0.69-0.7-1.37-1.41-2.12-2.19c-0.63,1.85-0.88,3.59-0.6,5.39c0.86,5.39,5.93,8.96,11.3,7.91c0.49-0.1,0.78,0.03,1.1,0.36
		c2.1,2.12,4.21,4.23,6.32,6.34c2.21,2.22,4.42,4.43,6.64,6.64c0.27,0.27,0.36,0.51,0.29,0.91c-0.25,1.32-0.27,2.66,0.03,3.98
		c1.17,5.13,5.99,8.33,11.17,7.37C54.65,45.43,58.18,40.99,57.49,35.72z M53.31,38.7c-1.17,1.18-2.34,2.37-3.54,3.53
		c-0.15,0.14-0.46,0.22-0.66,0.17c-1.63-0.41-3.25-0.85-4.87-1.31c-0.18-0.05-0.41-0.26-0.46-0.45c-0.47-1.63-0.91-3.28-1.32-4.92
		c-0.04-0.17,0.04-0.45,0.16-0.57c1.19-1.22,2.39-2.42,3.61-3.61c0.13-0.13,0.44-0.19,0.63-0.15c1.61,0.41,3.22,0.84,4.82,1.29
		c0.19,0.05,0.43,0.25,0.48,0.43c0.48,1.67,0.92,3.35,1.38,5.02c0.01,0.04,0.02,0.07,0.05,0.19C53.51,38.41,53.43,38.58,53.31,38.7z
		"/>
</g>
</svg>
