<?xml version="1.0" encoding="utf-8"?>
<!-- Generator: Adobe Illustrator 24.1.2, SVG Export Plug-In . SVG Version: 6.00 Build 0)  -->
<svg version="1.1" id="Слой_1" xmlns="http://www.w3.org/2000/svg" xmlns:xlink="http://www.w3.org/1999/xlink" x="0px" y="0px"
	 viewBox="0 0 60 60" style="enable-background:new 0 0 60 60;" xml:space="preserve">
<style type="text/css">
	.st0{fill:#2CAD6E;}
</style>
<g>
	<path class="st0" d="M58.33,2.09h-1.87c-0.55,0-1,0.45-1,1v5.7H38.7l-1.07-2.33c-0.08-0.18-0.23-0.31-0.38-0.41L36.93,5.4
		C36.7,4.9,36.1,4.69,35.6,4.92l-1.69,0.81c-0.5,0.24-0.71,0.84-0.47,1.33l1.66,3.48l-3.24,3.24c0.17,0.38,0.32,0.77,0.44,1.18
		c0.21,0.7,0.29,1.37,0.26,2.02l3.8-3.8l7.01,14.71l-8.45,8.45l-6.64-2.76c-1.05,1.07-2.26,1.91-3.75,2.28
		c-0.2,0.05-0.4,0.08-0.6,0.11l9.19,3.82v14.18H18.43V34.96c-1.02,0.09-1.94-0.12-2.76-0.59v19.6h-3.09c-0.55,0-1,0.45-1,1v1.87
		c0,0.55,0.45,1,1,1h27.25c0.55,0,1-0.45,1-1v-1.87c0-0.55-0.45-1-1-1h-3.95V40.94l1.48,0.61c0.51,0.21,1.1-0.03,1.31-0.54
		l0.72-1.73c0.21-0.51-0.03-1.1-0.54-1.31l-1.17-0.49l6.95-6.95l0.53,1.12c0.24,0.5,0.84,0.71,1.33,0.47l1.69-0.81
		c0.5-0.24,0.71-0.84,0.47-1.33l-0.71-1.49h7.51v1.83c0,0.55,0.45,1,1,1h1.87c0.55,0,1-0.45,1-1v-0.41V6.08V3.09
		C59.33,2.54,58.88,2.09,58.33,2.09z M55.46,25.74h-8.83l-4.21-8.82l-2.46-5.37h15.49V25.74z"/>
	<path class="st0" d="M12.54,31.68c0.06-0.34,0.11-0.68,0.13-1.02c0.08-1.66,0.14-3.32,0.22-4.98c0.03-0.5,0.12-1,0.2-1.56
		c1.54,0.83,3.08,0.98,4.71,0.6c0.02,0.13,0.03,0.22,0.04,0.3c0.36,2.38,1.57,4.26,3.48,5.69c1.22,0.9,2.59,1.24,4.09,0.87
		c1.54-0.38,2.77-1.26,3.85-2.37c1.15-1.19,1.95-2.59,1.92-4.3c-0.03-1.42-0.52-2.56-2.24-2.67c-1.64-0.1-3.29-0.16-4.94-0.26
		c-0.77-0.05-1.55-0.14-2.39-0.22c0.84-1.55,0.99-3.1,0.62-4.68c0.07-0.03,0.09-0.04,0.11-0.05c0.07-0.01,0.14-0.02,0.22-0.03
		c2.34-0.35,4.21-1.52,5.63-3.39c1.22-1.61,1.42-3.37,0.58-5.22c-0.7-1.55-1.76-2.81-3.19-3.75c-0.95-0.62-1.98-1.03-3.13-0.99
		c-1.36,0.05-2.56,0.5-2.68,2.24C19.77,6,19.74,6.11,19.74,6.22c-0.08,1.63-0.14,3.27-0.23,4.9c-0.04,0.68-0.14,1.37-0.22,2.12
		c-1.55-0.84-3.08-1-4.66-0.64c-0.03-0.06-0.05-0.08-0.05-0.1c-0.01-0.05-0.02-0.1-0.03-0.14c-0.3-2.11-1.28-3.85-2.85-5.26
		C10.04,5.6,8.17,5.11,6.07,6C4.42,6.7,3.09,7.82,2.13,9.34c-0.72,1.14-1.12,2.38-0.86,3.76c0.22,1.17,0.77,1.79,1.94,1.9
		c1.68,0.16,3.36,0.2,5.04,0.3c0.81,0.05,1.62,0.14,2.5,0.22c-0.85,1.55-1.03,3.1-0.65,4.73c-0.17,0.02-0.29,0.03-0.4,0.06
		c-2.5,0.43-4.44,1.73-5.82,3.84c-0.73,1.11-0.99,2.35-0.64,3.65c0.64,2.35,2.09,4.08,4.23,5.23c1.02,0.54,2.1,0.77,3.26,0.52
		C11.83,33.31,12.35,32.78,12.54,31.68z M15.75,15.57c1.7-0.23,3.28,0.98,3.52,2.68c0.24,1.71-1,3.32-2.71,3.53
		c-1.71,0.21-3.29-1.01-3.5-2.7C12.84,17.38,14.05,15.79,15.75,15.57z"/>
</g>
</svg>
