<?xml version="1.0" encoding="utf-8"?>
<!-- Generator: Adobe Illustrator 24.1.2, SVG Export Plug-In . SVG Version: 6.00 Build 0)  -->
<svg version="1.1" id="Слой_1" xmlns="http://www.w3.org/2000/svg" xmlns:xlink="http://www.w3.org/1999/xlink" x="0px" y="0px"
	 viewBox="0 0 60 60" style="enable-background:new 0 0 60 60;" xml:space="preserve">
<style type="text/css">
	.st0{fill:#2CAD6E;}
</style>
<g>
	<path class="st0" d="M38.21,38.87c-1.26,1.81-2.73,3.46-4.34,5.02c-2.57,2.49-5.44,4.61-8.58,6.33c-0.18,0.1-0.51,0.13-0.67,0.04
		c-5.41-3.03-10.03-6.96-13.49-12.15C9.08,35.04,7.94,31.59,7.19,28c-0.61-2.9-0.91-5.83-0.97-8.79c-0.01-0.51,0.17-0.69,0.61-0.85
		c5.45-1.98,10.74-4.33,15.71-7.34c0.71-0.43,1.39-0.91,2.11-1.34c0.14-0.08,0.4-0.11,0.52-0.03c2.85,1.9,5.83,3.53,8.89,4.99
		c1.12-1.12,2.18-2.28,3.16-3.52c-4.14-1.92-8.16-4.09-11.99-6.65c-0.15-0.1-0.49-0.07-0.65,0.03c-0.89,0.54-1.75,1.14-2.64,1.68
		C15.7,9.98,9.07,12.93,2.22,15.41c-0.56,0.2-0.78,0.43-0.77,1.07c0.08,3.71,0.46,7.39,1.22,11.03c0.94,4.5,2.38,8.83,4.95,12.69
		c4.34,6.52,10.14,11.44,16.93,15.24c0.21,0.12,0.62,0.08,0.85-0.05c3.94-2.17,7.53-4.82,10.76-7.95c2.47-2.39,4.69-4.96,6.47-7.86
		c-1.36-0.12-2.71-0.31-4.06-0.59C38.45,38.96,38.33,38.91,38.21,38.87z"/>
	<path class="st0" d="M52.66,25.63c0.18-0.83-0.15-1.52-0.67-2.12c-0.41-0.48-0.52-0.93-0.22-1.51c0.25-0.47,0.37-1,0.28-1.54
		c-0.14-0.85-0.72-1.3-1.46-1.6c-1.08-0.44-2.23-0.57-3.38-0.54c-1.38,0.03-2.76,0.18-4.15,0.27c-0.14,0.01-0.29-0.03-0.43-0.04
		c0.06-0.13,0.1-0.27,0.19-0.38c0.33-0.44,0.71-0.85,1.02-1.31c1-1.49,1.59-3.1,1.34-4.93c-0.15-1.07-0.56-2.02-1.39-2.75
		c-0.82-0.72-1.99-0.89-2.6,0.62c-0.39,0.97-0.88,1.91-1.42,2.8c-1.72,2.86-3.95,5.29-6.46,7.46c-0.52,0.45-0.76,0.96-0.75,1.64
		c0.02,1.91,0.01,3.81,0.01,5.72c0,1.99,0,3.99,0,5.98c0,0.59,0.22,0.84,0.8,0.88c1.44,0.1,2.81,0.48,4.11,1.11
		c0.39,0.19,0.79,0.38,1.21,0.46c3.02,0.61,6.06,0.71,9.11,0.3c0.94-0.13,1.85-0.36,2.66-0.88c0.56-0.36,1-0.84,1.01-1.54
		c0-0.42-0.12-0.85-0.26-1.25c-0.16-0.49-0.14-0.7,0.22-1.08c0.23-0.24,0.46-0.5,0.62-0.79c0.51-0.96,0.25-1.84-0.33-2.68
		c-0.33-0.48-0.31-0.66,0.12-1.05C52.22,26.54,52.54,26.16,52.66,25.63z"/>
	<path class="st0" d="M25.83,20.5c-0.32,0-0.59,0.26-0.59,0.59v12.47c0,0.32,0.26,0.59,0.59,0.59h3.45c0.32,0,0.59-0.26,0.59-0.59
		V21.08c0-0.32-0.26-0.59-0.59-0.59H25.83z"/>
</g>
</svg>
