<?xml version="1.0" encoding="utf-8"?>
<!-- Generator: Adobe Illustrator 24.1.2, SVG Export Plug-In . SVG Version: 6.00 Build 0)  -->
<svg version="1.1" id="Слой_1" xmlns="http://www.w3.org/2000/svg" xmlns:xlink="http://www.w3.org/1999/xlink" x="0px" y="0px"
	 viewBox="0 0 60 60" style="enable-background:new 0 0 60 60;" xml:space="preserve">
<style type="text/css">
	.st0{fill:#2CAD6E;}
</style>
<g>
	<path class="st0" d="M51.71,35.53h-18.6c-0.42,0-0.77,0.35-0.77,0.77v7.57c0,0.42,0.35,0.77,0.77,0.77h18.6
		c0.42,0,0.77-0.35,0.77-0.77V36.3C52.47,35.88,52.13,35.53,51.71,35.53z M47.74,42.11c-1.17,0-2.13-0.95-2.13-2.13
		c0-1.17,0.95-2.13,2.13-2.13c1.17,0,2.13,0.95,2.13,2.13C49.87,41.16,48.92,42.11,47.74,42.11z"/>
	<path class="st0" d="M28.26,46.94V33.23c0-0.42,0.35-0.77,0.77-0.77h19.92V24.8c0-0.34-0.23-0.62-0.54-0.72H3.28
		c-0.31,0.1-0.54,0.38-0.54,0.72v30.58c0,0.42,0.35,0.77,0.77,0.77h44.67c0.42,0,0.77-0.35,0.77-0.77V47.7H29.02
		C28.6,47.7,28.26,47.36,28.26,46.94z M15.16,44.88c-2.99,0.01-5.98,0.01-8.98,0.01c-0.04,0-0.08-0.01-0.17-0.03
		c-0.01-0.13-0.02-0.27-0.02-0.42c0-2.86,0-5.72,0-8.57c0-0.14,0.04-0.28,0.07-0.43c1.54,0,3.07,0,4.61,0
		c0.01,0.17,0.02,0.35,0.02,0.52c0,2.79,0,5.58,0,8.36c0,0.14,0,0.28,0,0.42c0.03,0.02,0.06,0.03,0.1,0.05
		c3.12-3.12,6.23-6.24,9.35-9.36c1.54,0,3.07,0,4.61,0c-0.08,0.11-0.14,0.23-0.23,0.32c-2.96,2.96-5.92,5.93-8.89,8.88
		C15.52,44.77,15.32,44.88,15.16,44.88z M24.78,44.87c-1.52,0-3.04,0-4.59,0c1.54-1.54,3.06-3.05,4.59-4.57
		C24.78,41.8,24.78,43.32,24.78,44.87z"/>
	<path class="st0" d="M38.35,18.11c0.3-0.3,0.3-0.79,0-1.08L25.4,4.08c-0.3-0.3-0.79-0.3-1.08,0L7.3,21.1h28.06L38.35,18.11z"/>
</g>
</svg>
