<?xml version="1.0" encoding="utf-8"?>
<!-- Generator: Adobe Illustrator 24.1.2, SVG Export Plug-In . SVG Version: 6.00 Build 0)  -->
<svg version="1.1" id="Слой_1" xmlns="http://www.w3.org/2000/svg" xmlns:xlink="http://www.w3.org/1999/xlink" x="0px" y="0px"
	 viewBox="0 0 60 60" style="enable-background:new 0 0 60 60;" xml:space="preserve">
<style type="text/css">
	.st0{fill:#2CAD6E;}
</style>
<g>
	<path class="st0" d="M36.27,20.23c0.69,0,1.26-0.57,1.26-1.26v-2.36c0-0.69-0.57-1.26-1.26-1.26h-1.03
		c-0.19-0.02-0.39-0.03-0.6-0.05c-1.06-4.05-3.32-7.21-6.9-9.62c0,0.99,0,1.81,0,2.62c-0.01,1.31-0.74,2.16-1.85,2.15
		c-1.09-0.01-1.8-0.84-1.81-2.11c-0.01-1.71,0.01-3.41-0.01-5.11c-0.01-1.51-1.04-2.53-2.55-2.54c-1.53-0.01-3.05-0.01-4.58,0
		c-1.62,0.01-2.62,1-2.63,2.61c-0.01,1.71,0.01,3.41,0,5.11c-0.01,1.2-0.74,2.02-1.8,2.04c-1.09,0.02-1.84-0.82-1.86-2.07
		c-0.01-0.85,0-1.7,0-2.6C7.8,7.23,5.59,10.3,3.72,15.31c-0.11,0.01-0.19,0.03-0.29,0.04H1.92c-0.69,0-1.26,0.57-1.26,1.26v2.36
		c0,0.69,0.57,1.26,1.26,1.26H36.27z"/>
	<path class="st0" d="M28.63,48.08c-0.34-0.1-0.66-0.24-0.94-0.43c-0.07-0.11-0.13-0.21-0.21-0.3c-0.6-0.64-0.94-1.37-0.94-2.26
		c0-1.48,0.02-2.95-0.01-4.43c-0.01-0.46,0.15-0.73,0.51-1c2.59-1.87,4.31-4.36,5.15-7.44c0.75-2.72,0.35-5.5,0.47-8.29
		c-0.03,0-0.07,0-0.1,0c0,0-0.01,0-0.01,0c0-0.01,0-0.01,0-0.02c-0.03,0-0.07,0-0.1,0c-1.21,0-2.34,0-3.57,0c-0.03,0-0.07,0-0.1,0
		c0,1.54,0.05,3.06-0.02,4.57c-0.05,1.06-0.14,2.15-0.44,3.15c-0.75,2.54-2.54,4.59-4.75,5.78c-1,0.51-2.11,0.88-3.31,1.06
		c-0.38,0.06-0.77,0.08-1.15,0.08c-0.38,0-0.77-0.02-1.15-0.08c-1.2-0.18-2.31-0.54-3.31-1.06c-2.21-1.2-4-3.25-4.75-5.78
		c-0.3-1.01-0.39-2.1-0.44-3.15c-0.07-1.51-0.02-3.03-0.02-4.57c-0.03,0-0.07,0-0.1,0c-1.22,0-2.35,0-3.57,0c-0.03,0-0.07,0-0.1,0
		c0,0.01,0,0.01,0,0.02c0,0-0.01,0-0.01,0c-0.03,0-0.07,0-0.1,0c0.11,2.79-0.28,5.56,0.47,8.29c0.85,3.08,2.56,5.57,5.15,7.44
		c0.37,0.27,0.52,0.53,0.51,1c-0.03,1.48-0.02,2.95-0.01,4.43c0,0.89-0.34,1.62-0.94,2.26c-0.08,0.08-0.15,0.19-0.21,0.3
		c-0.38,0.27-0.83,0.46-1.32,0.54c-0.17,0.03-0.34,0.04-0.51,0.07H2.81c-0.69,0-1.26,0.57-1.26,1.26v8.5c0,0.69,0.56,1.24,1.24,1.26
		c0,0,0,0,0,0c0.01,0,0.02,0,0.02,0h0.08h0.04h0.1h28.16h0.1h0.04h0.06c0.01,0,0.02,0,0.04,0c0,0,0-0.01,0-0.01
		c0.68-0.02,1.22-0.57,1.22-1.25v-1.84C30.38,54.14,28.89,51.29,28.63,48.08z M22.45,49.79c-0.26,0.16-0.53,0.31-0.8,0.43
		c-0.8,0.36-1.68,0.52-2.55,0.54c-0.87-0.01-1.75-0.17-2.55-0.54c-0.28-0.13-0.55-0.27-0.8-0.43C14.5,49,14.55,49.01,15,47.63
		c0.26-0.78,0.4-1.63,0.46-2.45c0.08-1.1,0.02-2.2,0.02-3.43c0.02,0.01,0.04,0.01,0.06,0.01c0,0,0-0.01,0-0.01
		c1.18,0.3,2.35,0.46,3.51,0.46c0.02,0,0.03,0,0.05,0s0.03,0,0.05,0c1.17,0,2.33-0.16,3.51-0.46c0,0,0,0.01,0,0.01
		c0.01,0,0.03,0,0.04-0.01c0,1.23-0.06,2.33,0.02,3.43c0.06,0.82,0.2,1.67,0.46,2.45C23.65,49.01,23.7,49,22.45,49.79z"/>
	<path class="st0" d="M41.41,35.99c-5.67,0-10.26,4.59-10.26,10.26s4.59,10.26,10.26,10.26s10.26-4.59,10.26-10.26
		S47.08,35.99,41.41,35.99z M46.73,45.8c-0.59,0.56-1.16,1.14-1.76,1.7c-0.22,0.2-0.27,0.39-0.22,0.67c0.15,0.77,0.25,1.54,0.4,2.31
		c0.08,0.39,0.04,0.72-0.29,0.97c-0.34,0.25-0.68,0.17-1.02-0.01c-0.69-0.37-1.39-0.72-2.07-1.1c-0.25-0.14-0.45-0.15-0.7-0.01
		c-0.74,0.41-1.48,0.8-2.24,1.17c-0.62,0.3-1.24-0.12-1.2-0.8c0.14-0.83,0.28-1.67,0.44-2.52c0.06-0.29,0-0.5-0.23-0.71
		c-0.57-0.52-1.1-1.08-1.66-1.6c-0.3-0.28-0.48-0.59-0.34-1c0.13-0.39,0.46-0.51,0.85-0.56c0.79-0.1,1.58-0.21,2.37-0.36
		c0.17-0.03,0.38-0.18,0.46-0.33c0.38-0.7,0.73-1.42,1.07-2.14c0.17-0.35,0.39-0.6,0.81-0.6c0.44-0.01,0.67,0.25,0.85,0.62
		c0.33,0.71,0.68,1.41,1.05,2.1c0.09,0.16,0.31,0.32,0.49,0.35c0.81,0.15,1.64,0.26,2.46,0.37c0.36,0.05,0.63,0.22,0.74,0.57
		C47.1,45.25,46.99,45.55,46.73,45.8z"/>
</g>
</svg>
